<?xml version="1.0" encoding="utf-8"?>
<!-- Generator: Adobe Illustrator 25.2.0, SVG Export Plug-In . SVG Version: 6.00 Build 0)  -->
<svg version="1.1" xmlns="http://www.w3.org/2000/svg" xmlns:xlink="http://www.w3.org/1999/xlink" x="0px" y="0px"
	 viewBox="0 0 612 792" style="enable-background:new 0 0 612 792;" xml:space="preserve">
<style type="text/css">
	.st0{fill:none;stroke:#1C1515;stroke-width:4;stroke-miterlimit:10;}
	.st1{fill:#FFFFFF;stroke:#1C1515;stroke-width:4;stroke-miterlimit:10;}
	.st2{fill:none;stroke:#1C1515;stroke-width:2;stroke-miterlimit:10;}
	.st3{fill:#FFFFFF;stroke:#1C1515;stroke-width:2;stroke-miterlimit:10;}
	.st4{fill:#FFFFFF;}
	.st5{fill:none;stroke:#FFFFFF;stroke-width:22;stroke-linecap:round;stroke-linejoin:round;}
	.st6{fill:none;stroke:#000000;stroke-width:14;stroke-linecap:round;}
	.st7{fill:none;stroke:#FFFFFF;stroke-width:6;stroke-linecap:round;}
	.st8{enable-background:new    ;}
	.st9{clip-path:url(#SVGID_2_);enable-background:new    ;}
	.st10{fill:#606060;}
	.st11{fill:#5D5D5D;}
	.st12{fill:#5B5B5B;}
	.st13{fill:#595959;}
	.st14{clip-path:url(#SVGID_4_);enable-background:new    ;}
	.st15{clip-path:url(#SVGID_6_);enable-background:new    ;}
	.st16{clip-path:url(#SVGID_8_);enable-background:new    ;}
	.st17{clip-path:url(#SVGID_10_);enable-background:new    ;}
	.st18{clip-path:url(#SVGID_12_);enable-background:new    ;}
	.st19{clip-path:url(#SVGID_14_);enable-background:new    ;}
	.st20{fill:#5A5A5A;}
	.st21{clip-path:url(#SVGID_16_);enable-background:new    ;}
	.st22{clip-path:url(#SVGID_18_);enable-background:new    ;}
	.st23{fill:#A7A7A7;}
	.st24{clip-path:url(#SVGID_20_);enable-background:new    ;}
	.st25{clip-path:url(#SVGID_22_);enable-background:new    ;}
	.st26{clip-path:url(#SVGID_24_);enable-background:new    ;}
	.st27{clip-path:url(#SVGID_26_);enable-background:new    ;}
	.st28{clip-path:url(#SVGID_28_);enable-background:new    ;}
	.st29{clip-path:url(#SVGID_30_);enable-background:new    ;}
	.st30{clip-path:url(#SVGID_32_);enable-background:new    ;}
	.st31{clip-path:url(#SVGID_34_);enable-background:new    ;}
	.st32{clip-path:url(#SVGID_36_);enable-background:new    ;}
	.st33{clip-path:url(#SVGID_38_);enable-background:new    ;}
	.st34{clip-path:url(#SVGID_40_);enable-background:new    ;}
	.st35{clip-path:url(#SVGID_42_);enable-background:new    ;}
	.st36{clip-path:url(#SVGID_44_);enable-background:new    ;}
	.st37{clip-path:url(#SVGID_46_);enable-background:new    ;}
	.st38{clip-path:url(#SVGID_48_);enable-background:new    ;}
	.st39{clip-path:url(#SVGID_50_);enable-background:new    ;}
	.st40{clip-path:url(#SVGID_52_);enable-background:new    ;}
	.st41{clip-path:url(#SVGID_54_);enable-background:new    ;}
	.st42{clip-path:url(#SVGID_56_);enable-background:new    ;}
	.st43{clip-path:url(#SVGID_58_);enable-background:new    ;}
	.st44{clip-path:url(#SVGID_60_);enable-background:new    ;}
	.st45{clip-path:url(#SVGID_62_);enable-background:new    ;}
	.st46{clip-path:url(#SVGID_64_);enable-background:new    ;}
	.st47{clip-path:url(#SVGID_66_);enable-background:new    ;}
	.st48{clip-path:url(#SVGID_68_);enable-background:new    ;}
	.st49{clip-path:url(#SVGID_70_);enable-background:new    ;}
	.st50{clip-path:url(#SVGID_72_);enable-background:new    ;}
	.st51{clip-path:url(#SVGID_74_);enable-background:new    ;}
	.st52{clip-path:url(#SVGID_76_);enable-background:new    ;}
	.st53{clip-path:url(#SVGID_78_);enable-background:new    ;}
	.st54{clip-path:url(#SVGID_80_);enable-background:new    ;}
	.st55{clip-path:url(#SVGID_82_);enable-background:new    ;}
	.st56{clip-path:url(#SVGID_84_);enable-background:new    ;}
	.st57{clip-path:url(#SVGID_86_);enable-background:new    ;}
	.st58{clip-path:url(#SVGID_88_);enable-background:new    ;}
	.st59{clip-path:url(#SVGID_90_);enable-background:new    ;}
	.st60{clip-path:url(#SVGID_92_);enable-background:new    ;}
	.st61{clip-path:url(#SVGID_94_);enable-background:new    ;}
	.st62{clip-path:url(#SVGID_96_);enable-background:new    ;}
	.st63{clip-path:url(#SVGID_98_);enable-background:new    ;}
	.st64{clip-path:url(#SVGID_100_);enable-background:new    ;}
	.st65{clip-path:url(#SVGID_102_);enable-background:new    ;}
	.st66{clip-path:url(#SVGID_104_);enable-background:new    ;}
	.st67{fill:#F73521;}
	.st68{clip-path:url(#SVGID_106_);enable-background:new    ;}
	.st69{clip-path:url(#SVGID_108_);enable-background:new    ;}
	.st70{clip-path:url(#SVGID_110_);enable-background:new    ;}
	.st71{clip-path:url(#SVGID_112_);enable-background:new    ;}
	.st72{clip-path:url(#SVGID_114_);enable-background:new    ;}
	.st73{clip-path:url(#SVGID_116_);enable-background:new    ;}
	.st74{clip-path:url(#SVGID_118_);enable-background:new    ;}
	.st75{clip-path:url(#SVGID_120_);enable-background:new    ;}
	.st76{fill:#703F1E;}
	.st77{clip-path:url(#SVGID_122_);enable-background:new    ;}
	.st78{clip-path:url(#SVGID_124_);enable-background:new    ;}
	.st79{clip-path:url(#SVGID_126_);enable-background:new    ;}
	.st80{clip-path:url(#SVGID_128_);enable-background:new    ;}
	.st81{clip-path:url(#SVGID_130_);enable-background:new    ;}
	.st82{clip-path:url(#SVGID_132_);enable-background:new    ;}
	.st83{clip-path:url(#SVGID_134_);enable-background:new    ;}
	.st84{clip-path:url(#SVGID_136_);enable-background:new    ;}
	.st85{clip-path:url(#SVGID_138_);enable-background:new    ;}
	.st86{clip-path:url(#SVGID_140_);enable-background:new    ;}
	.st87{clip-path:url(#SVGID_142_);enable-background:new    ;}
	.st88{clip-path:url(#SVGID_144_);enable-background:new    ;}
	.st89{clip-path:url(#SVGID_146_);enable-background:new    ;}
	.st90{clip-path:url(#SVGID_148_);enable-background:new    ;}
	.st91{clip-path:url(#SVGID_150_);enable-background:new    ;}
	.st92{clip-path:url(#SVGID_152_);enable-background:new    ;}
	.st93{clip-path:url(#SVGID_154_);enable-background:new    ;}
	.st94{clip-path:url(#SVGID_156_);enable-background:new    ;}
	.st95{clip-path:url(#SVGID_158_);enable-background:new    ;}
	.st96{clip-path:url(#SVGID_160_);enable-background:new    ;}
	.st97{clip-path:url(#SVGID_162_);enable-background:new    ;}
	.st98{clip-path:url(#SVGID_164_);enable-background:new    ;}
	.st99{clip-path:url(#SVGID_166_);enable-background:new    ;}
	.st100{clip-path:url(#SVGID_168_);enable-background:new    ;}
	.st101{clip-path:url(#SVGID_170_);enable-background:new    ;}
	.st102{clip-path:url(#SVGID_172_);enable-background:new    ;}
	.st103{clip-path:url(#SVGID_174_);enable-background:new    ;}
	.st104{clip-path:url(#SVGID_176_);enable-background:new    ;}
	.st105{clip-path:url(#SVGID_178_);enable-background:new    ;}
	.st106{clip-path:url(#SVGID_180_);enable-background:new    ;}
	.st107{clip-path:url(#SVGID_182_);enable-background:new    ;}
	.st108{clip-path:url(#SVGID_184_);enable-background:new    ;}
	.st109{clip-path:url(#SVGID_186_);enable-background:new    ;}
	.st110{clip-path:url(#SVGID_188_);enable-background:new    ;}
	.st111{clip-path:url(#SVGID_190_);enable-background:new    ;}
	.st112{clip-path:url(#SVGID_192_);enable-background:new    ;}
	.st113{clip-path:url(#SVGID_194_);enable-background:new    ;}
	.st114{clip-path:url(#SVGID_196_);enable-background:new    ;}
	.st115{clip-path:url(#SVGID_198_);enable-background:new    ;}
	.st116{clip-path:url(#SVGID_200_);enable-background:new    ;}
	.st117{clip-path:url(#SVGID_202_);enable-background:new    ;}
	.st118{clip-path:url(#SVGID_204_);enable-background:new    ;}
	.st119{fill:none;stroke:#000000;stroke-width:2;stroke-miterlimit:10;}
	.st120{fill:none;stroke:#000000;stroke-miterlimit:10;}
	.st121{clip-path:url(#SVGID_220_);enable-background:new    ;}
	.st122{fill:#F73521;stroke:#000000;stroke-linejoin:round;stroke-miterlimit:10;}
	.st123{clip-path:url(#SVGID_222_);enable-background:new    ;}
	.st124{clip-path:url(#SVGID_224_);enable-background:new    ;}
	.st125{clip-path:url(#SVGID_226_);enable-background:new    ;}
	.st126{fill:#F73521;stroke:#000000;stroke-miterlimit:10;}
	.st127{clip-path:url(#SVGID_228_);enable-background:new    ;}
	.st128{clip-path:url(#SVGID_230_);enable-background:new    ;}
	.st129{clip-path:url(#SVGID_232_);enable-background:new    ;}
	.st130{fill:#703F1E;stroke:#000000;stroke-miterlimit:10;}
	.st131{clip-path:url(#SVGID_234_);enable-background:new    ;}
	.st132{clip-path:url(#SVGID_236_);enable-background:new    ;}
	.st133{clip-path:url(#SVGID_238_);enable-background:new    ;}
	.st134{clip-path:url(#SVGID_240_);enable-background:new    ;}
	.st135{clip-path:url(#SVGID_242_);enable-background:new    ;}
	.st136{clip-path:url(#SVGID_244_);enable-background:new    ;}
	.st137{clip-path:url(#SVGID_246_);enable-background:new    ;}
	.st138{clip-path:url(#SVGID_248_);enable-background:new    ;}
	.st139{clip-path:url(#SVGID_250_);enable-background:new    ;}
	.st140{clip-path:url(#SVGID_252_);enable-background:new    ;}
	.st141{clip-path:url(#SVGID_254_);enable-background:new    ;}
	.st142{clip-path:url(#SVGID_256_);enable-background:new    ;}
	.st143{fill:#F73521;stroke:#000000;stroke-width:0.5;stroke-miterlimit:10;}
	.st144{clip-path:url(#SVGID_258_);enable-background:new    ;}
	.st145{clip-path:url(#SVGID_260_);enable-background:new    ;}
	.st146{clip-path:url(#SVGID_262_);enable-background:new    ;}
	.st147{clip-path:url(#SVGID_264_);enable-background:new    ;}
	.st148{clip-path:url(#SVGID_266_);enable-background:new    ;}
	.st149{clip-path:url(#SVGID_268_);enable-background:new    ;}
	.st150{clip-path:url(#SVGID_270_);enable-background:new    ;}
	.st151{clip-path:url(#SVGID_272_);enable-background:new    ;}
	.st152{clip-path:url(#SVGID_274_);enable-background:new    ;}
	.st153{clip-path:url(#SVGID_276_);enable-background:new    ;}
	.st154{clip-path:url(#SVGID_278_);enable-background:new    ;}
	.st155{clip-path:url(#SVGID_280_);enable-background:new    ;}
	.st156{clip-path:url(#SVGID_282_);enable-background:new    ;}
	.st157{clip-path:url(#SVGID_284_);enable-background:new    ;}
	.st158{clip-path:url(#SVGID_286_);enable-background:new    ;}
	.st159{clip-path:url(#SVGID_288_);enable-background:new    ;}
	.st160{clip-path:url(#SVGID_290_);enable-background:new    ;}
	.st161{clip-path:url(#SVGID_292_);enable-background:new    ;}
	.st162{clip-path:url(#SVGID_294_);enable-background:new    ;}
	.st163{clip-path:url(#SVGID_296_);enable-background:new    ;}
	.st164{clip-path:url(#SVGID_298_);enable-background:new    ;}
	.st165{clip-path:url(#SVGID_300_);enable-background:new    ;}
	.st166{clip-path:url(#SVGID_302_);enable-background:new    ;}
	.st167{clip-path:url(#SVGID_304_);enable-background:new    ;}
	.st168{clip-path:url(#SVGID_306_);enable-background:new    ;}
	.st169{clip-path:url(#SVGID_308_);enable-background:new    ;}
	.st170{clip-path:url(#SVGID_310_);enable-background:new    ;}
	.st171{clip-path:url(#SVGID_312_);enable-background:new    ;}
	.st172{clip-path:url(#SVGID_314_);enable-background:new    ;}
	.st173{clip-path:url(#SVGID_316_);enable-background:new    ;}
	.st174{clip-path:url(#SVGID_318_);enable-background:new    ;}
	.st175{clip-path:url(#SVGID_320_);enable-background:new    ;}
	.st176{clip-path:url(#SVGID_322_);enable-background:new    ;}
	.st177{clip-path:url(#SVGID_324_);enable-background:new    ;}
	.st178{clip-path:url(#SVGID_326_);enable-background:new    ;}
	.st179{clip-path:url(#SVGID_328_);enable-background:new    ;}
	.st180{clip-path:url(#SVGID_330_);enable-background:new    ;}
	.st181{clip-path:url(#SVGID_332_);enable-background:new    ;}
	.st182{clip-path:url(#SVGID_334_);enable-background:new    ;}
	.st183{clip-path:url(#SVGID_336_);enable-background:new    ;}
	.st184{clip-path:url(#SVGID_338_);enable-background:new    ;}
	.st185{clip-path:url(#SVGID_340_);enable-background:new    ;}
	.st186{clip-path:url(#SVGID_342_);enable-background:new    ;}
	.st187{clip-path:url(#SVGID_344_);enable-background:new    ;}
	.st188{clip-path:url(#SVGID_346_);enable-background:new    ;}
	.st189{clip-path:url(#SVGID_348_);enable-background:new    ;}
	.st190{clip-path:url(#SVGID_350_);enable-background:new    ;}
	.st191{clip-path:url(#SVGID_352_);enable-background:new    ;}
	.st192{clip-path:url(#SVGID_354_);enable-background:new    ;}
	.st193{clip-path:url(#SVGID_356_);enable-background:new    ;}
	.st194{clip-path:url(#SVGID_358_);enable-background:new    ;}
	.st195{clip-path:url(#SVGID_360_);enable-background:new    ;}
	.st196{fill:none;}
	.st197{fill:#EF4631;stroke:#000000;stroke-miterlimit:10;}
	.st198{clip-path:url(#SVGID_376_);enable-background:new    ;}
	.st199{fill:#533D43;}
	.st200{fill:#EF4631;stroke:#000000;stroke-linejoin:round;stroke-miterlimit:10;}
	.st201{fill:#EFE801;stroke:#000000;stroke-miterlimit:10;}
	.st202{fill:#EF4631;stroke:#000000;stroke-linecap:round;stroke-linejoin:round;stroke-miterlimit:10;}
	.st203{fill:none;stroke:#000000;stroke-width:2.5;stroke-miterlimit:10;}
	.st204{stroke:#FFFFFF;stroke-width:3;stroke-miterlimit:10;}
	.st205{fill:#231F20;}
	.st206{fill:#231F20;stroke:#231F20;stroke-width:0.1811;stroke-miterlimit:10;}
	.st207{fill:none;stroke:#231F20;stroke-width:1.243;stroke-miterlimit:10;}
	.st208{display:none;}
	.st209{display:inline;fill:#FFB8B8;}
</style>
<g id="Layer_1">
	<g>
		<path d="M125.26,149.84c2.23-3.34,6.11-4.89,8.83-3.71c3.62,1.57,6.31,7,7.27,13.74c0.58,4.1,1.87,9.82,3.58,12.27l0,0
			c4.17,3.17,8.29,5.41,12.26,6.66c0.93,0.29,1.81,0.51,2.62,0.64c2.09-6,4.24-10.88,6.49-14.79l2.68-4.64
			c1.73-3,3.93-4.65,6.2-4.65h13.28c4.83,0,8.82,7.31,9.48,16.83c1.56,1.12,3.52,2.37,5.93,3.74c7.29,4.12,10.68,4.14,11.56,4.04
			l17.67-13.35c2.47-1.86,5.23-1.83,7.59,0.53c4.48,4.46,6.44,14.64,5.02,23.73l-4.58,29.4h5.92l19.09-48.51
			c1.4-3.55,3.36-6,5.54-6.91l3.37-1.41c2.15-0.9,4.35-1.36,6.55-1.36c8.59,0,16.94,6.76,24.82,20.08c0.9,1.52,1.77,3.11,2.61,4.76
			l26.55-36.64c2.34-3.74,5.38-5.48,8.27-4.11c4.47,2.12,7.47,10.17,7.47,19.16l3.19,54.96h8.7c4.55-13.95,10.46-26.31,17.62-36.85
			c8.37-12.47,15.78-20.95,22.61-25.86l9.14-6.56c0.88-0.63,1.79-1.08,2.72-1.15c4.55-0.34,8.29,5.43,9.59,13.45l2.72,16.74
			c0.43,1.16,1.43,3.61,3.37,7.47c3.38,6.74,7.23,12.89,11.43,18.3c2.41,3.1,3.84,4.36,4.42,4.8l13.79,1.03l15.69-39.89
			c1.4-3.55,3.36-6,5.54-6.91l3.37-1.41c2.15-0.9,4.35-1.36,6.55-1.36c8.59,0,16.94,6.76,24.82,20.08c0.9,1.52,1.77,3.1,2.61,4.76
			l29.88-36.85c2.07-3.31,4.71-5,7.31-4.23c4.93,1.46,8.31,9.94,8.31,19.48v246.56c0,10.79,0.53,21.36,1.58,31.49l12.02,10.53
			c4.7,4.11,6.99,15.05,5.22,24.87c-2.91,16.1-7.46,31.6-13.54,46.09c-7.6,18.09-16.4,28.96-26.15,32.28l-2.35,0.8
			c-1.54,0.52-3.12,0.27-4.6-0.74l-2.25-1.54c-5.15-3.51-9.02-10.09-12.03-17.83c-5.27,9.22-11.06,15.48-17.28,18.67l-1.14,0.58
			c-0.77,0.39-1.55,0.59-2.34,0.59h-1.17c-5.99,0-11.93-2.58-17.64-7.65c-4.96-4.4-9.26-9.55-12.77-15.27c-0.01,0-0.01,0-0.02,0.01
			c-2.15,7.03-6.32,10.71-10.43,8.62l-13.24-6.74c-1.81,2.87-3.94,5.77-6.43,8.76c-4.27,5.12-9.11,8.93-14.41,11.34l-1.02,0.47
			c-0.68,0.31-1.38,0.47-2.07,0.47h-1.06c-6.78,0-14.13-3.16-22.45-9.67c-6.14-4.8-12.1-9.64-17.69-14.39
			c-0.65-0.55-1.24-1.03-1.77-1.45c-1.89,8.9-6.73,13.73-11.39,11.04l-13.47-7.8c-6.38,11.83-13.47,19.11-21.14,21.73l-2.35,0.8
			c-1.54,0.52-3.12,0.27-4.6-0.74l-2.25-1.54c-5.15-3.51-9.02-10.09-12.03-17.83c-5.27,9.22-11.06,15.48-17.28,18.67l-1.15,0.59
			c-0.76,0.39-1.54,0.59-2.32,0.59h-1.18c-6,0-11.93-2.58-17.64-7.66c-4.95-4.4-9.25-9.54-12.77-15.27c-0.01,0-0.01,0-0.01,0.01
			c-2.15,7.04-6.33,10.71-10.43,8.62l-12.4-6.31c-4.5,7.58-9.51,13.59-14.97,17.94l-3.05,2.43c-1.11,0.89-2.29,1.34-3.47,1.34
			c-0.91,0-1.83-0.27-2.72-0.81l-3.14-1.9c-9.63-5.84-17.7-18.24-24.06-36.93c-0.85,2.28-1.75,4.54-2.68,6.77
			c-7.43,17.83-16.09,28.38-25.75,31.35l-2.34,0.72c-1.54,0.47-3.11,0.17-4.58-0.88l-2.24-1.6c-7.74-5.53-12.64-18.35-16.05-31.84
			c-1.85,3.67-3.83,7.19-5.94,10.53c-5.98,9.44-12.31,16.6-18.82,21.29l-2.13,1.53c-1.4,1.01-2.89,1.34-4.36,0.96l-2.24-0.57
			c-4.43-1.13-10.39-4.49-23.96-21.22c-2.33-2.87-4.15-4.89-5.53-6.3c-1.66,9.18-6.43,14.56-11.18,12.27l-18.65-8.99
			c-5.01-2.41-8.25-12.53-7.21-22.85c2.49-24.67,7.51-45.15,14.93-60.97l0-0.01c-3.85-7.37-4.07-19.72-0.5-27.66l0,0
			c0,0,0.47-1.2,1.24-4.35c0.51-2.07,1.3-6.08,2.19-13.41c0.17-1.42,0.5-5.71-0.26-14.26c-0.64-7.19-2.14-14.86-4.44-22.79
			c-5.85-20.38-9.73-37.29-11.87-51.79c-2.69-18.15-2.94-36.67-0.74-55.03c2.08-17.48,6.65-34.77,13.94-52.86
			c7.14-17.87,13.9-30.41,20.64-38.25c7.51-8.74,15.47-13.16,23.67-13.16h1.81c1.2,0,2.38,0.46,3.5,1.35l1.68,1.35
			c4.36,3.5,8.29,8.06,11.74,13.66c0,0,0,0,0,0c1.94-4.56,4.38-8.12,7.06-10.65L125.26,149.84z M255.6,529.12
			C255.6,529.12,255.6,529.12,255.6,529.12C255.6,529.12,255.6,529.12,255.6,529.12z M65.63,526.71
			C65.63,526.71,65.63,526.71,65.63,526.71C65.63,526.71,65.63,526.71,65.63,526.71z M427.33,179.24L427.33,179.24L427.33,179.24z"
			/>
	</g>
	<g>
		<g>
			<path class="st4" d="M222.25,490.89c3.02,3.15,6.26,1.72,9.72-4.29c3.46-6.01,5.57-14.01,6.32-24.03
				c-0.63,13.45-3.15,27.18-7.55,41.19c-4.41,14.02-10,24.03-16.8,30.03c-6.79-4.57-12.39-16.3-16.8-35.18
				c-4.41-18.88-7.27-41.26-8.59-67.15c-1.32-25.88-1.54-53.56-0.66-83.02c0.88-29.46,2.89-57.21,6.04-83.24l4.34-7.72
				c-4.91-1.43-11.04-4.86-18.4-10.3c-7.36-5.43-12.11-10.15-14.25-14.16c-1.26,9.44-2.58,21.1-3.96,34.97
				c-1.39,13.88-2.45,25.53-3.21,34.97l-1.13,13.73v32.61h0.38c2.89,0,5.16-0.14,6.79-0.43c1.64-0.28,3.3-1.07,5-2.36
				c1.7-1.29,2.93-3.36,3.68-6.22c0.75-2.86,1.13-6.58,1.13-11.16c0,19.17-1.39,34.47-4.15,45.91
				c-2.77,11.44-6.23,17.16-10.38,17.16h-2.45v28.32c0,16.88,0.85,33.18,2.55,48.91c1.7,15.74,4.12,23.6,7.27,23.6
				c3.9,0,6.98-5.29,9.25-15.87c-2.01,12.59-5.22,24.74-9.63,36.47c-4.41,11.73-9.12,18.45-14.15,20.17
				c-2.52-2-5.16-11.16-7.93-27.46c-2.77-16.3-4.15-30.46-4.15-42.48c-0.13,0.58-0.28,1.44-0.47,2.57c-0.19,1.15-0.6,3.15-1.23,6.01
				c-0.63,2.86-1.32,5.51-2.08,7.94c-0.76,2.43-1.73,4.87-2.93,7.3c-1.2,2.43-2.49,4.22-3.87,5.36c3.02-4.29,5.35-12.44,6.98-24.46
				c1.63-12.01,2.45-23.74,2.45-35.18v-41.62c-9.06,0-14.09,3.72-15.1,11.16c0-8,0.78-17.09,2.36-27.24
				c1.57-10.15,3.18-16.37,4.81-18.66c2.64-4,5.28-6.44,7.93-7.3v-86.67l3.59-6.44c-5.16-1.72-11.07-5.15-17.74-10.3
				c-6.67-5.15-11.01-9.58-13.02-13.3c-3.77,26.32-5.92,51.48-6.42,75.51l0,66.07c0,18.6-2.58,36.4-7.74,53.42
				C92.9,445.05,86.55,457.14,79,464.28c2.39,1.15,5.19,3.29,8.4,6.44c3.21,3.15,6.1,6.22,8.68,9.23c2.58,3,5.57,5.86,8.96,8.58
				c3.4,2.72,6.42,4.22,9.06,4.51c2.64,0.29,5.6-0.71,8.87-3l-0.19,0.86c-2.64,9.44-6.17,18.02-10.57,25.74
				c-4.41,7.72-8.94,13.45-13.59,17.16c-3.02-0.86-8.56-6.79-16.61-17.8c-8.05-11.01-13.9-16.52-17.55-16.52
				c-4.66,0-8.24,2.93-10.76,8.79c-2.52,5.87-4.41,14.23-5.66,25.1c1.89-20.59,5.57-36.82,11.04-48.7
				c5.47-11.87,11.16-18.95,17.08-21.24c4.03-5.72,7.08-13.15,9.15-22.31c2.08-9.15,3.11-18.45,3.11-27.89l0-151.88
				c0-29.18-4.91-46.62-14.72-52.35c-1.13-0.28-2.45-0.49-3.96-0.64c-1.51-0.14-2.93,0.64-4.25,2.36c-1.32,1.72-2.58,3.79-3.77,6.22
				c-1.2,2.43-2.01,6.08-2.45,10.94c-0.44,4.87-0.54,10.23-0.28,16.09c0.25,5.87,1.1,13.09,2.55,21.67
				c1.45,8.58,3.55,18.02,6.32,28.32c3.4,13.16,6.1,24.88,8.12,35.18c2.01,10.3,3.21,20.03,3.59,29.18
				c0.38,9.16,0.31,17.31-0.19,24.46c-0.5,7.15-1.89,14.95-4.15,23.38c-2.27,8.44-4.62,16.09-7.08,22.95
				c-2.45,6.86-5.88,15.59-10.29,26.17c1.51-3.71,2.95-8.72,4.34-15.02c1.38-6.29,2.61-14.3,3.68-24.03
				c1.07-9.72,1.07-21.24,0-34.54c-1.07-13.3-3.37-26.67-6.89-40.12c-5.03-19.45-8.4-35.54-10.1-48.27
				c-1.7-12.72-1.86-25.53-0.47-38.4c1.38-12.87,4.78-26.74,10.19-41.62c5.66-15.73,10.82-26.6,15.48-32.61
				c4.65-6.01,9.44-9.01,14.34-9.01c11.57,10.3,17.36,33.61,17.36,69.94v19.74c3.02-31.46,7.17-56.35,12.46-74.66
				c1.89-7.15,3.65-12.29,5.28-15.44v0.43c1.76,4.58,5.57,9.44,11.42,14.59c5.85,5.15,11.64,8.73,17.36,10.73
				c5.72,2,10.54,1.86,14.44-0.43c-2.26,15.73-5.41,29.6-9.44,41.62v45.48c0.76-9.15,1.45-16.59,2.08-22.31
				c3.02-31.46,7.11-56.35,12.27-74.66c1.89-7.15,3.65-12.29,5.28-15.44h0.19v0.43c2.89,7.44,9.59,14.45,20.1,21.02
				c10.5,6.58,18.15,7.87,22.93,3.86c-1.89,13.45-4.47,25.6-7.74,36.47h0.19c-4.15,32.33-6.54,67.36-7.17,105.12
				c-0.63,37.76,0.59,70.94,3.68,99.54C212.22,466.29,216.59,484.02,222.25,490.89z"/>
		</g>
		<path class="st4" d="M345.93,490.26c4.15,0,7.42-5.58,9.81-16.73c-2.14,13.16-5.54,25.89-10.19,38.18
			c-4.66,12.3-9.63,19.45-14.91,21.45c-2.64-2-5.41-11.58-8.3-28.75c-2.9-17.16-4.34-32.03-4.34-44.62
			c-1.26,8.3-3.15,15.59-5.66,21.88c-2.26,12.01-5.38,22.95-9.34,32.82c-3.96,9.87-8.21,16.09-12.74,18.67
			c-3.4,0-6.77-1.64-10.1-4.93c-3.34-3.29-6.1-6.87-8.3-10.73c-2.2-3.86-4.66-7.44-7.36-10.73c-2.71-3.29-5.19-4.94-7.46-4.94
			c-3.9,0-6.98,2.51-9.25,7.51c-2.26,5.01-4.15,12.94-5.66,23.81c1.64-20.31,4.88-37.11,9.72-50.41
			c4.84-13.3,10.22-19.95,16.14-19.95c1.63,0,3.27,0.29,4.91,0.86c3.65-9.72,7.17-22.02,10.57-36.9c3.4-14.87,6.32-31.32,8.78-49.34
			c2.45-18.02,3.87-35.97,4.25-53.85c0.38-17.87-0.63-34.68-3.02-50.41c-2.64-15.73-7.3-27.38-13.97-34.97
			c-6.67-7.57-13.53-8.94-20.57-4.08l19.63-55.35c4.91-2.29,10.07,1.65,15.48,11.8c5.41,10.16,9.25,24.67,11.51,43.55
			c3.02,28.89,3.49,58.35,1.42,88.39s-5.95,58.07-11.61,84.09c-5.66,26.03-12.08,45.63-19.25,58.78c2.39,1.43,4.84,3.65,7.36,6.65
			c2.52,3,4.65,5.72,6.42,8.15c1.76,2.43,3.65,4.65,5.66,6.65c2.01,2,4.18,2.86,6.51,2.57c2.33-0.28,4.81-1.72,7.46-4.29
			c2.26-6.29,4.03-14.94,5.28-25.96c1.26-11.01,1.89-21.52,1.89-31.53V204.08l18.87-33.47v243.27c0,17.74,0.91,34.9,2.74,51.49
			C340.11,481.96,342.65,490.26,345.93,490.26z"/>
		<path class="st4" d="M395.56,463.65c3.14,1.15,6.57,3.37,10.29,6.65c3.71,3.29,6.92,6.51,9.63,9.65c2.7,3.15,5.91,6.15,9.63,9.01
			c3.71,2.86,7.2,4.36,10.48,4.5c3.27,0.15,7.3-1.07,12.08-3.65c-1.01,2.57-2.71,7.01-5.1,13.3c-2.39,6.3-4.18,10.73-5.38,13.3
			c-1.2,2.57-3.08,5.58-5.66,9.01c-2.58,3.43-5.57,6.01-8.97,7.72c-4.41,0-9.66-2.64-15.76-7.94c-6.1-5.29-11.89-10.51-17.36-15.66
			c-5.47-5.15-9.6-7.72-12.36-7.72c-3.9,0-6.98,2.51-9.25,7.51c-2.26,5.01-4.15,12.94-5.66,23.81
			c5.16-46.91,14.47-70.37,27.93-70.37c0.12,0,0.25,0,0.38,0c3.77-14.59,3.77-33.89,0-57.92l-15.1-89.24
			c-3.77-23.74-4.06-46.34-0.85-67.79c3.21-21.45,9.28-39.47,18.21-54.06c6.92-11.44,12.9-19.16,17.93-23.17
			c0.88,6,3.52,13.87,7.93,23.6c4.4,9.73,9.31,18.45,14.72,26.17c5.41,7.72,9.81,11.73,13.21,12.01
			c-4.15,10.87-8.12,19.38-11.89,25.53c-3.77,6.15-8.12,10.8-13.02,13.94c-2.01-1.14-5.32-5.64-9.91-13.51
			c-4.59-7.86-8.96-16.3-13.12-25.31c-4.15-9.01-6.8-15.8-7.93-20.38c-5.41,12.59-6.54,28.75-3.4,48.48
			c6.16,38.33,11.83,72.8,16.99,103.4c1.76,9.73,2.74,19.81,2.93,30.25c0.19,10.44-0.63,21.88-2.45,34.32
			C402.89,441.56,399.84,453.08,395.56,463.65z"/>
		<path class="st4" d="M558.07,490.26c4.15,0,7.42-5.58,9.81-16.73c-2.14,13.16-5.54,25.89-10.19,38.18
			c-4.66,12.3-9.63,19.45-14.91,21.45c-2.64-2-5.41-11.58-8.3-28.75c-2.9-17.16-4.34-32.03-4.34-44.62
			c-1.26,8.3-3.15,15.59-5.66,21.88c-2.26,12.01-5.38,22.95-9.34,32.82c-3.96,9.87-8.21,16.09-12.74,18.67
			c-3.4,0-6.76-1.64-10.1-4.93c-3.34-3.29-6.1-6.87-8.3-10.73c-2.2-3.86-4.66-7.44-7.36-10.73c-2.71-3.29-5.19-4.94-7.46-4.94
			c-3.9,0-6.98,2.51-9.25,7.51c-2.27,5.01-4.15,12.94-5.66,23.81c1.64-20.31,4.87-37.11,9.72-50.41
			c4.84-13.3,10.22-19.95,16.14-19.95c1.63,0,3.27,0.29,4.91,0.86c3.65-9.72,7.17-22.02,10.57-36.9c3.4-14.87,6.32-31.32,8.78-49.34
			c2.45-18.02,3.87-35.97,4.25-53.85c0.38-17.87-0.63-34.68-3.02-50.41c-2.64-15.73-7.3-27.38-13.97-34.97
			c-6.67-7.57-13.53-8.94-20.57-4.08l19.63-55.35c4.91-2.29,10.06,1.65,15.48,11.8c5.41,10.16,9.25,24.67,11.51,43.55
			c3.02,28.89,3.49,58.35,1.41,88.39c-2.08,30.03-5.95,58.07-11.61,84.09c-5.66,26.03-12.08,45.63-19.25,58.78
			c2.39,1.43,4.84,3.65,7.36,6.65c2.52,3,4.65,5.72,6.42,8.15c1.76,2.43,3.65,4.65,5.66,6.65c2.01,2,4.18,2.86,6.51,2.57
			c2.33-0.28,4.81-1.72,7.46-4.29c2.27-6.29,4.03-14.94,5.28-25.96c1.26-11.01,1.89-21.52,1.89-31.53V204.08l18.87-33.47l0,243.27
			c0,17.74,0.91,34.9,2.74,51.49C552.24,481.96,554.79,490.26,558.07,490.26z"/>
	</g>
</g>
<g id="Layer_2">
</g>
<g id="Layer_3">
</g>
<g id="Layer_4" class="st208">
</g>
</svg>
